<?xml version="1.0" encoding="UTF-8"?>
<!-- Created with Inkscape (http://www.inkscape.org/) -->
<svg width="822.28" height="224.79" version="1.1" viewBox="0 0 822.28 224.79" xmlns="http://www.w3.org/2000/svg" xmlns:xlink="http://www.w3.org/1999/xlink">
 <defs>
  <clipPath id="clipPath2">
   <path transform="translate(-385.64 -298.62)" d="M 0,600.511 H 600.511 V 0 H 0 Z"/>
  </clipPath>
  <clipPath id="clipPath4">
   <path transform="translate(-252.88 -292.62)" d="M 0,600.511 H 600.511 V 0 H 0 Z"/>
  </clipPath>
  <clipPath id="clipPath6">
   <path transform="translate(-346.93 -308.4)" d="M 0,600.511 H 600.511 V 0 H 0 Z"/>
  </clipPath>
  <clipPath id="clipPath8">
   <path transform="translate(-315.24 -265.73)" d="M 0,600.511 H 600.511 V 0 H 0 Z"/>
  </clipPath>
  <clipPath id="clipPath10">
   <path transform="translate(-275.57 -301.85)" d="M 0,600.511 H 600.511 V 0 H 0 Z"/>
  </clipPath>
  <clipPath id="clipPath12">
   <path transform="translate(-313.83 -317.39)" d="M 0,600.511 H 600.511 V 0 H 0 Z"/>
  </clipPath>
  <clipPath id="clipPath14">
   <path transform="translate(-327.87 -283.16)" d="M 0,600.511 H 600.511 V 0 H 0 Z"/>
  </clipPath>
  <clipPath id="clipPath16">
   <path transform="translate(-271.34 -279.89)" d="M 0,600.511 H 600.511 V 0 H 0 Z"/>
  </clipPath>
  <clipPath id="clipPath18">
   <path transform="translate(-219.2 -374.69)" d="M 0,600.511 H 600.511 V 0 H 0 Z"/>
  </clipPath>
  <clipPath id="clipPath20">
   <path transform="translate(-183.15 -328.99)" d="M 0,600.511 H 600.511 V 0 H 0 Z"/>
  </clipPath>
  <clipPath id="clipPath22">
   <path transform="translate(-239.69 -380.39)" d="M 0,600.511 H 600.511 V 0 H 0 Z"/>
  </clipPath>
  <clipPath id="clipPath24">
   <path transform="translate(-330.65 -400.89)" d="M 0,600.511 H 600.511 V 0 H 0 Z"/>
  </clipPath>
  <clipPath id="clipPath26">
   <path transform="translate(-269.5 -407.24)" d="M 0,600.511 H 600.511 V 0 H 0 Z"/>
  </clipPath>
  <clipPath id="clipPath28">
   <path transform="translate(-348.51 -382.13)" d="M 0,600.511 H 600.511 V 0 H 0 Z"/>
  </clipPath>
  <clipPath id="clipPath30">
   <path transform="translate(-314.92 -412.36)" d="M 0,600.511 H 600.511 V 0 H 0 Z"/>
  </clipPath>
  <clipPath id="clipPath32">
   <path transform="translate(-305.03 -393.6)" d="M 0,600.511 H 600.511 V 0 H 0 Z"/>
  </clipPath>
  <clipPath id="clipPath34">
   <path transform="translate(-387.7 -341.75)" d="M 0,600.511 H 600.511 V 0 H 0 Z"/>
  </clipPath>
  <clipPath id="clipPath36">
   <path transform="translate(-382.93 -376.05)" d="M 0,600.511 H 600.511 V 0 H 0 Z"/>
  </clipPath>
  <clipPath id="clipPath38">
   <path transform="translate(-251.14 -416.89)" d="M 0,600.511 H 600.511 V 0 H 0 Z"/>
  </clipPath>
  <clipPath id="clipPath40">
   <path transform="translate(-223.84 -355.57)" d="M 0,600.511 H 600.511 V 0 H 0 Z"/>
  </clipPath>
  <clipPath id="clipPath42">
   <path transform="translate(-301.21 -424.52)" d="M 0,600.511 H 600.511 V 0 H 0 Z"/>
  </clipPath>
  <clipPath id="clipPath44">
   <path transform="translate(-225.43 -403.6)" d="M 0,600.511 H 600.511 V 0 H 0 Z"/>
  </clipPath>
  <clipPath id="clipPath46">
   <path transform="translate(-265.6 -386.04)" d="M 0,600.511 H 600.511 V 0 H 0 Z"/>
  </clipPath>
  <clipPath id="clipPath48">
   <path transform="translate(-210.46 -330.21)" d="M 0,600.511 H 600.511 V 0 H 0 Z"/>
  </clipPath>
  <clipPath id="clipPath50">
   <path transform="translate(-197.95 -311.32)" d="M 0,600.511 H 600.511 V 0 H 0 Z"/>
  </clipPath>
  <clipPath id="clipPath52">
   <path transform="translate(-204.04 -289.73)" d="M 0,600.511 H 600.511 V 0 H 0 Z"/>
  </clipPath>
  <clipPath id="clipPath54">
   <path transform="translate(-406.72 -297.78)" d="M 0,600.511 H 600.511 V 0 H 0 Z"/>
  </clipPath>
  <clipPath id="clipPath56">
   <path transform="translate(-397.23 -280.21)" d="M 0,600.511 H 600.511 V 0 H 0 Z"/>
  </clipPath>
  <clipPath id="clipPath58">
   <path transform="translate(-400.64 -315.74)" d="M 0,600.511 H 600.511 V 0 H 0 Z"/>
  </clipPath>
  <clipPath id="clipPath60">
   <path transform="translate(-406.42 -333.53)" d="M 0,600.511 H 600.511 V 0 H 0 Z"/>
  </clipPath>
  <clipPath id="clipPath62">
   <path transform="translate(-396 -362.3)" d="M 0,600.511 H 600.511 V 0 H 0 Z"/>
  </clipPath>
  <clipPath id="clipPath64">
   <path transform="translate(-354.75 -406.44)" d="M 0,600.511 H 600.511 V 0 H 0 Z"/>
  </clipPath>
  <clipPath id="clipPath66">
   <path transform="translate(-244.71 -398.97)" d="M 0,600.511 H 600.511 V 0 H 0 Z"/>
  </clipPath>
  <clipPath id="clipPath68">
   <path transform="translate(-283.26 -394.89)" d="M 0,600.511 H 600.511 V 0 H 0 Z"/>
  </clipPath>
  <clipPath id="clipPath70">
   <path transform="translate(-294.23 -408.66)" d="M 0,600.511 H 600.511 V 0 H 0 Z"/>
  </clipPath>
  <clipPath id="clipPath72">
   <path transform="translate(-366.21 -394.81)" d="M 0,600.511 H 600.511 V 0 H 0 Z"/>
  </clipPath>
  <clipPath id="clipPath74">
   <path transform="translate(-373.53 -364.69)" d="M 0,600.511 H 600.511 V 0 H 0 Z"/>
  </clipPath>
  <clipPath id="clipPath144">
   <path transform="translate(-255.69 -313.17)" d="M 0,600.511 H 600.511 V 0 H 0 Z"/>
  </clipPath>
  <clipPath id="clipPath76-4">
   <path transform="translate(-189.31 -179.69)" d="M 0,600.511 H 600.511 V 0 H 0 Z"/>
  </clipPath>
  <clipPath id="clipPath78-8">
   <path transform="translate(-204.57 -181.52)" d="M 0,600.511 H 600.511 V 0 H 0 Z"/>
  </clipPath>
  <clipPath id="clipPath80-4">
   <path transform="translate(-225.43 -179.44)" d="M 0,600.511 H 600.511 V 0 H 0 Z"/>
  </clipPath>
  <clipPath id="clipPath82-5">
   <path transform="translate(-252.9 -174.17)" d="M 0,600.511 H 600.511 V 0 H 0 Z"/>
  </clipPath>
  <clipPath id="clipPath84-7">
   <path transform="translate(-269.22 -174.17)" d="M 0,600.511 H 600.511 V 0 H 0 Z"/>
  </clipPath>
  <clipPath id="clipPath86-1">
   <path transform="translate(-286.4 -191.49)" d="M 0,600.511 H 600.511 V 0 H 0 Z"/>
  </clipPath>
  <clipPath id="clipPath88-2">
   <path transform="translate(-305.86 -174.91)" d="M 0,600.511 H 600.511 V 0 H 0 Z"/>
  </clipPath>
  <clipPath id="clipPath90-6">
   <path transform="translate(-330.18 -174.17)" d="M 0,600.511 H 600.511 V 0 H 0 Z"/>
  </clipPath>
  <clipPath id="clipPath92-4">
   <path transform="translate(-348.69 -174.17)" d="M 0,600.511 H 600.511 V 0 H 0 Z"/>
  </clipPath>
  <clipPath id="clipPath94-3">
   <path transform="translate(-366.13 -191.49)" d="M 0,600.511 H 600.511 V 0 H 0 Z"/>
  </clipPath>
  <clipPath id="clipPath96-2">
   <path transform="translate(-380.28 -181.52)" d="M 0,600.511 H 600.511 V 0 H 0 Z"/>
  </clipPath>
  <clipPath id="clipPath98-6">
   <path transform="translate(-403.29 -183.08)" d="M 0,600.511 H 600.511 V 0 H 0 Z"/>
  </clipPath>
  <clipPath id="clipPath100-5">
   <path transform="translate(-426.92 -174.17)" d="M 0,600.511 H 600.511 V 0 H 0 Z"/>
  </clipPath>
  <clipPath id="clipPath102-6">
   <path transform="translate(-389.62 -174.17)" d="M 0,600.511 H 600.511 V 0 H 0 Z"/>
  </clipPath>
  <clipPath id="clipPath104-8">
   <path transform="translate(-232.43 -174.17)" d="M 0,600.511 H 600.511 V 0 H 0 Z"/>
  </clipPath>
  <clipPath id="clipPath106-2">
   <path transform="translate(-110.29 -212.16)" d="M 0,600.511 H 600.511 V 0 H 0 Z"/>
  </clipPath>
  <clipPath id="clipPath108-9">
   <path transform="translate(-134.77 -217.49)" d="M 0,600.511 H 600.511 V 0 H 0 Z"/>
  </clipPath>
  <clipPath id="clipPath110-4">
   <path transform="translate(-159.64 -225.41)" d="M 0,600.511 H 600.511 V 0 H 0 Z"/>
  </clipPath>
  <clipPath id="clipPath112-1">
   <path transform="translate(-190.85 -221.92)" d="M 0,600.511 H 600.511 V 0 H 0 Z"/>
  </clipPath>
  <clipPath id="clipPath114-3">
   <path transform="translate(-196.51 -211.84)" d="M 0,600.511 H 600.511 V 0 H 0 Z"/>
  </clipPath>
  <clipPath id="clipPath116-4">
   <path transform="translate(-236.25 -215.51)" d="M 0,600.511 H 600.511 V 0 H 0 Z"/>
  </clipPath>
  <clipPath id="clipPath118-1">
   <path transform="translate(-242.73 -211.84)" d="M 0,600.511 H 600.511 V 0 H 0 Z"/>
  </clipPath>
  <clipPath id="clipPath120-8">
   <path transform="translate(-281.68 -225.41)" d="M 0,600.511 H 600.511 V 0 H 0 Z"/>
  </clipPath>
  <clipPath id="clipPath122-4">
   <path transform="translate(-305.12 -211.84)" d="M 0,600.511 H 600.511 V 0 H 0 Z"/>
  </clipPath>
  <clipPath id="clipPath124-7">
   <path transform="translate(-324.34 -211.84)" d="M 0,600.511 H 600.511 V 0 H 0 Z"/>
  </clipPath>
  <clipPath id="clipPath126-9">
   <path transform="translate(-356.56 -215.51)" d="M 0,600.511 H 600.511 V 0 H 0 Z"/>
  </clipPath>
  <clipPath id="clipPath128-1">
   <path transform="translate(-363.04 -211.84)" d="M 0,600.511 H 600.511 V 0 H 0 Z"/>
  </clipPath>
  <clipPath id="clipPath130-8">
   <path transform="translate(-405.7 -212.99)" d="M 0,600.511 H 600.511 V 0 H 0 Z"/>
  </clipPath>
  <clipPath id="clipPath132-5">
   <path transform="translate(-442.38 -215.51)" d="M 0,600.511 H 600.511 V 0 H 0 Z"/>
  </clipPath>
  <clipPath id="clipPath134-2">
   <path transform="translate(-448.22 -221.81)" d="M 0,600.511 H 600.511 V 0 H 0 Z"/>
  </clipPath>
  <clipPath id="clipPath136-6">
   <path transform="translate(-471.18 -211.84)" d="M 0,600.511 H 600.511 V 0 H 0 Z"/>
  </clipPath>
  <clipPath id="clipPath138-2">
   <path transform="translate(-159.48 -234.36)" d="M 0,600.511 H 600.511 V 0 H 0 Z"/>
  </clipPath>
  <clipPath id="clipPath140-8">
   <path d="M 0,600.511 H 600.511 V 0 H 0 Z"/>
  </clipPath>
  <clipPath id="clipPath142-5">
   <path transform="translate(-269.61 -236.66)" d="M 0,600.511 H 600.511 V 0 H 0 Z"/>
  </clipPath>
 </defs>
 <g transform="translate(-243.98 -231.68)">
  <path transform="matrix(1.3333 0 0 -1.3333 514.19 402.53)" d="m0 0c-0.015 0.329-0.03 0.658-0.049 0.987-0.069 1.223-0.158 2.445-0.279 3.662-0.029 0.29-0.068 0.577-0.1 0.867-0.106 0.962-0.228 1.921-0.366 2.877-0.06 0.413-0.118 0.825-0.184 1.236-0.18 1.132-0.38 2.261-0.605 3.384-0.072 0.358-0.154 0.712-0.23 1.068-0.197 0.917-0.408 1.83-0.635 2.74-0.082 0.331-0.161 0.663-0.247 0.992-0.312 1.191-0.649 2.375-1.011 3.551-0.048 0.155-0.1 0.308-0.148 0.463-0.385 1.223-0.796 2.438-1.235 3.642-4e-3 0.012-9e-3 0.023-0.013 0.035-1.679 4.599-3.747 9.058-6.204 13.314-0.048 0.084-0.118 0.145-0.185 0.209-7.194 12.344-17.37 22.744-29.562 30.168-0.043 0.038-0.074 0.085-0.125 0.116-4.72 2.857-9.694 5.226-14.841 7.106-1e-3 0-2e-3 0-3e-3 1e-3 -1.309 0.478-2.628 0.928-3.958 1.342-0.015 4e-3 -0.03 8e-3 -0.045 0.013-1.177 0.365-2.363 0.698-3.554 1.012-0.287 0.075-0.574 0.151-0.861 0.224-1.207 0.304-2.418 0.59-3.638 0.841-0.173 0.036-0.35 0.064-0.524 0.099-1.055 0.211-2.114 0.398-3.177 0.569-0.39 0.063-0.78 0.123-1.171 0.18-1.152 0.169-2.307 0.321-3.467 0.442-0.167 0.018-0.335 0.034-0.502 0.051-1.179 0.116-2.362 0.202-3.547 0.27-0.346 0.02-0.692 0.038-1.038 0.053-1.289 0.059-2.581 0.099-3.875 0.099h-2e-3 -1e-3 -2e-3c-1.295 0-2.586-0.04-3.875-0.099-0.347-0.015-0.693-0.033-1.039-0.053-1.185-0.068-2.368-0.154-3.547-0.27-0.167-0.017-0.335-0.033-0.502-0.051-1.16-0.121-2.315-0.273-3.467-0.442-0.391-0.057-0.781-0.117-1.17-0.18-1.064-0.171-2.123-0.358-3.178-0.569-0.174-0.035-0.351-0.063-0.525-0.099-1.219-0.251-2.43-0.537-3.636-0.841-0.288-0.073-0.575-0.149-0.862-0.224-1.191-0.314-2.378-0.647-3.554-1.012-0.015-5e-3 -0.03-9e-3 -0.044-0.013-1.331-0.414-2.65-0.864-3.959-1.342-1e-3 -1e-3 -2e-3 -1e-3 -3e-3 -1e-3 -5.147-1.88-10.121-4.249-14.84-7.106-0.051-0.031-0.083-0.078-0.126-0.116-24.653-15.013-41.151-42.147-41.151-73.063 0-12.112 2.482-23.818 7.377-34.791 0.166-0.372 0.531-0.592 0.914-0.592 0.136 0 0.275 0.027 0.406 0.086 0.505 0.225 0.732 0.817 0.506 1.321-4.779 10.715-7.203 22.146-7.203 33.976 0 37.399 24.72 69.133 58.679 79.72 6e-3 2e-3 0.012 3e-3 0.017 5e-3 1.154 0.36 2.323 0.685 3.498 0.996 0.276 0.072 0.553 0.146 0.83 0.216 1.177 0.297 2.362 0.576 3.559 0.823 0.166 0.034 0.334 0.061 0.5 0.095 1.031 0.206 2.07 0.389 3.113 0.557 0.381 0.061 0.761 0.12 1.143 0.176 1.124 0.165 2.253 0.313 3.392 0.432 0.16 0.017 0.319 0.032 0.479 0.048 1.149 0.114 2.306 0.199 3.468 0.265 0.339 0.019 0.677 0.036 1.016 0.052 1.255 0.056 2.515 0.096 3.784 0.096h2e-3 3e-3c1.269 0 2.528-0.04 3.783-0.096 0.339-0.016 0.677-0.033 1.015-0.052 1.163-0.066 2.32-0.151 3.469-0.265 0.16-0.016 0.32-0.031 0.479-0.048 1.138-0.119 2.268-0.267 3.392-0.432 0.382-0.056 0.762-0.115 1.143-0.176 1.044-0.168 2.082-0.351 3.113-0.557 0.166-0.034 0.334-0.061 0.5-0.095 1.196-0.247 2.381-0.526 3.559-0.823 0.278-0.07 0.554-0.144 0.83-0.216 1.175-0.311 2.344-0.636 3.498-0.996 6e-3 -2e-3 0.011-3e-3 0.017-5e-3 24.814-7.736 44.696-26.764 53.604-51.043 1e-3 -3e-3 2e-3 -7e-3 3e-3 -0.01 0.434-1.182 0.835-2.379 1.216-3.586 0.046-0.144 0.094-0.288 0.139-0.433 0.356-1.15 0.684-2.311 0.991-3.481 0.082-0.316 0.158-0.632 0.237-0.949 0.223-0.894 0.431-1.795 0.624-2.7 0.074-0.343 0.153-0.684 0.222-1.027 0.221-1.097 0.416-2.202 0.593-3.314 0.064-0.398 0.12-0.798 0.178-1.197 0.135-0.936 0.256-1.877 0.359-2.823 0.031-0.279 0.069-0.557 0.097-0.837 0.118-1.185 0.205-2.379 0.273-3.579 0.018-0.321 0.033-0.643 0.047-0.965 0.056-1.252 0.096-2.509 0.096-3.776 0-1.111-0.029-2.218-0.071-3.322-0.014-0.365-0.024-0.731-0.043-1.095-8e-3 -0.173-0.023-0.345-0.033-0.517-0.032-0.56-0.065-1.119-0.108-1.677-0.016-0.207-0.039-0.412-0.056-0.619-0.107-1.251-0.235-2.497-0.397-3.736-2e-3 -0.017-5e-3 -0.034-8e-3 -0.051-0.187-1.427-0.41-2.846-0.671-4.257-3e-3 -0.022-8e-3 -0.043-0.012-0.064-1.188-6.403-3.127-12.637-5.809-18.646-0.225-0.504 1e-3 -1.096 0.506-1.32 0.132-0.06 0.271-0.087 0.406-0.087 0.383 0 0.748 0.22 0.914 0.592v1e-3c2e-3 3e-3 4e-3 5e-3 5e-3 7e-3 4.263 9.555 6.694 19.667 7.251 30.119 3e-3 0.05 7e-3 0.099 0.01 0.149 0.077 1.501 0.116 3.009 0.116 4.523 0 1.292-0.04 2.581-0.098 3.868" clip-path="url(#clipPath2)" fill="#ea5a1d"/>
  <path transform="matrix(1.3333 0 0 -1.3333 337.18 410.53)" d="m0 0 5.112 1.699-5.112 1.699c-0.388 0.129-0.713 0.39-0.924 0.73-0.07 0.113-0.128 0.236-0.171 0.365l-1.699 5.112-1.062-3.195-0.637-1.917c-0.086-0.258-0.231-0.489-0.418-0.677-0.094-0.094-0.198-0.177-0.312-0.247s-0.236-0.128-0.365-0.171l-5.112-1.699 5.112-1.699c0.129-0.043 0.251-0.101 0.365-0.171s0.218-0.153 0.312-0.247c0.187-0.188 0.332-0.418 0.418-0.677l0.566-1.704 1.133-3.408 1.457 4.383 0.242 0.729c0.043 0.129 0.101 0.252 0.171 0.365 0.211 0.34 0.536 0.601 0.924 0.73" clip-path="url(#clipPath4)" fill="#ea5a1d"/>
  <path transform="matrix(1.3333 0 0 -1.3333 462.57 389.48)" d="m0 0-2.422-7.289c-9e-3 -0.027-0.025-0.05-0.036-0.076-0.125-0.3-0.37-0.537-0.681-0.64l-0.362-0.121-5.211-1.731-1.715-0.571 7.288-2.422c0.339-0.112 0.604-0.378 0.717-0.717l2.422-7.288 1.179 3.548 0.302 0.909 0.403 1.211 0.538 1.62c0.113 0.339 0.378 0.605 0.717 0.717l7.288 2.422-7.288 2.423c-0.339 0.112-0.604 0.378-0.717 0.716zm0-3.569 1.355-4.076c0.223-0.671 0.758-1.205 1.429-1.428l4.075-1.355-4.075-1.354c-0.671-0.223-1.206-0.757-1.43-1.429l-0.269-0.811-0.269-0.81-0.403-1.212-0.302-0.908-0.111-0.334-1.354 4.074c-0.223 0.672-0.758 1.207-1.43 1.43l-4.075 1.354 1.934 0.643 1.779 0.591 0.362 0.121c0.604 0.2 1.095 0.653 1.351 1.241 0.029 0.059 0.055 0.119 0.079 0.188z" clip-path="url(#clipPath6)" fill="#fbba27"/>
  <g fill="#e62943">
   <path transform="matrix(1.3333 0 0 -1.3333 420.31 446.37)" d="m0 0 4.679-5.699 7.345 23.819-0.511 17.655c-2e-3 0.056 4e-3 0.11 0.018 0.164l8.325 33.534-6.489 9.148-26.72-2.142c-0.044-2e-3 -0.089-3e-3 -0.133 4e-3l-27.516 3.867-8.981-11.402 9.76-32.975c0.025-0.085 0.032-0.173 0.019-0.261l-3.059-20.996 9.005-19.94 4.56 5.474 7.672 21.402c0.034 0.094 0.091 0.179 0.165 0.247l7.709 6.959c0.243 0.218 0.614 0.208 0.843-0.024l7.338-7.435c0.073-0.074 0.126-0.166 0.153-0.266zm4.928-7.573c-0.18 0-0.354 0.081-0.472 0.224l-5.481 6.676c-0.054 0.065-0.094 0.142-0.116 0.224l-5.811 21.104-6.816 6.907-7.161-6.466-7.657-21.359c-0.024-0.067-0.06-0.129-0.106-0.185l-5.252-6.306c-0.135-0.161-0.339-0.245-0.551-0.213-0.209 0.028-0.387 0.162-0.474 0.353l-9.478 20.991c-0.048 0.107-0.065 0.224-0.048 0.339l3.065 21.04-9.812 33.148c-0.056 0.19-0.017 0.395 0.106 0.551l9.393 11.925c0.134 0.171 0.346 0.255 0.564 0.227l27.796-3.907 26.999 2.165c0.213 0.011 0.421-0.081 0.545-0.256l6.852-9.659c0.103-0.144 0.137-0.327 0.094-0.499l-8.372-33.725 0.511-17.672c2e-3 -0.066-7e-3 -0.133-0.027-0.197l-7.708-24.999c-0.066-0.215-0.245-0.376-0.466-0.419-0.038-8e-3 -0.078-0.012-0.117-0.012" clip-path="url(#clipPath8)"/>
   <path transform="matrix(1.3333 0 0 -1.3333 367.42 398.21)" d="m0 0 25.921-7.083 24.808 7.085-12.761 15.536-23.286 0.052zm25.925-8.325c-0.054 0-0.108 7e-3 -0.161 0.021l-27.064 7.395c-0.207 0.056-0.369 0.216-0.427 0.423-0.058 0.206-4e-3 0.427 0.143 0.584l15.559 16.521c0.115 0.122 0.276 0.192 0.444 0.192h2e-3l23.838-0.054c0.182 0 0.354-0.081 0.469-0.223l13.533-16.476c0.131-0.159 0.173-0.373 0.112-0.569-0.062-0.196-0.217-0.348-0.415-0.404l-25.866-7.387c-0.055-0.016-0.111-0.023-0.167-0.023" clip-path="url(#clipPath10)"/>
   <path transform="matrix(1.3333 0 0 -1.3333 418.43 377.5)" d="m0 0c-0.045 0-0.091 5e-3 -0.136 0.015-0.18 0.041-0.333 0.163-0.414 0.33l-11.438 23.676-11.3-23.621c-0.076-0.159-0.218-0.278-0.387-0.325-0.166-0.049-0.351-0.019-0.499 0.079l-25.409 16.756c-0.281 0.185-0.359 0.564-0.173 0.845 0.184 0.281 0.564 0.359 0.845 0.173l24.824-16.371 11.546 24.134c0.102 0.212 0.315 0.346 0.55 0.347 0.235 0 0.448-0.134 0.55-0.344l11.658-24.131 21.214 16.901c0.265 0.21 0.648 0.165 0.858-0.097 0.21-0.264 0.166-0.647-0.097-0.858l-21.812-17.376c-0.109-0.087-0.243-0.133-0.38-0.133" clip-path="url(#clipPath12)"/>
   <path transform="matrix(1.3333 0 0 -1.3333 437.16 423.14)" d="m0 0c-0.031 0-0.062 2e-3 -0.094 7e-3l-19.042 2.934c-0.302 0.046-0.518 0.306-0.517 0.603 0 0.031 2e-3 0.062 7e-3 0.093 0.051 0.333 0.36 0.56 0.696 0.509l19.042-2.933c0.302-0.046 0.518-0.307 0.517-0.603 0-0.031-2e-3 -0.062-7e-3 -0.093-0.046-0.302-0.307-0.517-0.602-0.517" clip-path="url(#clipPath14)"/>
   <path transform="matrix(1.3333 0 0 -1.3333 361.79 427.49)" d="m0 0c-0.263 0-0.506 0.172-0.585 0.436-0.017 0.058-0.025 0.117-0.025 0.174 0 0.263 0.172 0.506 0.436 0.584l22.44 6.676c0.323 0.098 0.662-0.088 0.758-0.41 0.018-0.058 0.026-0.117 0.026-0.174 0-0.263-0.172-0.506-0.436-0.585l-22.44-6.676c-0.058-0.017-0.117-0.025-0.174-0.025" clip-path="url(#clipPath16)"/>
  </g>
  <path transform="matrix(1.3333 0 0 -1.3333 292.27 301.09)" d="m0 0 8.555-2.189-5.543 6.874c-0.42 0.522-0.638 1.169-0.626 1.825 3e-3 0.219 0.032 0.439 0.088 0.656l2.189 8.554-4.298-3.464-2.577-2.078c-0.347-0.28-0.751-0.471-1.176-0.563-0.213-0.046-0.43-0.068-0.65-0.064-0.218 4e-3 -0.438 0.033-0.654 0.088l-8.555 2.189 5.543-6.874c0.14-0.174 0.257-0.362 0.351-0.559 0.095-0.198 0.165-0.405 0.211-0.618 0.092-0.425 0.087-0.871-0.024-1.304l-0.73-2.851-1.459-5.703 5.895 4.752 0.98 0.79c0.173 0.14 0.361 0.258 0.559 0.352 0.592 0.282 1.272 0.353 1.921 0.187" clip-path="url(#clipPath18)" fill="#fbba27"/>
  <path transform="matrix(1.3333 0 0 -1.3333 244.2 362.03)" d="m0 0 23.69 36.506c0.246 0.384 0.496 0.498 0.744 0.338l0.878-0.564c0.235-0.151 0.227-0.42-0.02-0.804l-23.382-36.704c-0.091-0.141-0.227-0.263-0.409-0.368-0.181-0.107-0.382-0.089-0.601 0.052l-0.768 0.494c-0.22 0.141-0.319 0.317-0.299 0.527 0.022 0.208 0.076 0.382 0.167 0.523" clip-path="url(#clipPath20)" fill="#ea4d95"/>
  <path transform="matrix(1.3333 0 0 -1.3333 319.59 293.5)" d="m0 0 1.348-0.448c0.104-0.033 0.21-0.083 0.307-0.146 0.09-0.054 0.177-0.124 0.255-0.202 0.158-0.158 0.278-0.352 0.349-0.562l0.447-1.349 0.447 1.348c0.036 0.107 0.083 0.209 0.143 0.303 0.177 0.287 0.451 0.503 0.77 0.608l1.346 0.448-1.347 0.447c-0.321 0.108-0.594 0.324-0.77 0.61-0.059 0.093-0.106 0.195-0.142 0.301l-0.447 1.348-0.447-1.347c-0.071-0.21-0.19-0.404-0.347-0.562-0.08-0.08-0.167-0.15-0.262-0.207-0.094-0.06-0.196-0.107-0.302-0.143zm2.706-5.875-1.396 4.201c-0.021 0.063-0.058 0.122-0.107 0.171-0.023 0.024-0.05 0.045-0.078 0.063l-4.295 1.44 4.202 1.396c0.032 0.011 0.064 0.026 0.093 0.043 0.028 0.018 0.055 0.04 0.078 0.063 0.049 0.049 0.085 0.107 0.107 0.173l1.396 4.201 1.397-4.202c0.01-0.032 0.025-0.064 0.043-0.093 0.053-0.087 0.137-0.152 0.235-0.185l4.201-1.396-4.203-1.397c-0.097-0.033-0.18-0.098-0.233-0.184-0.018-0.029-0.033-0.061-0.043-0.094z" clip-path="url(#clipPath22)" fill="#e62943"/>
  <g fill="#ea5a1d">
   <path transform="matrix(1.3333 0 0 -1.3333 440.87 266.17)" d="m0 0 2.294-0.763c0.128-0.043 0.252-0.1 0.368-0.172 0.12-0.075 0.227-0.159 0.32-0.252 0.194-0.195 0.34-0.433 0.425-0.69l0.763-2.294 0.762 2.294c0.045 0.134 0.104 0.26 0.176 0.375 0.214 0.346 0.547 0.609 0.938 0.739l2.293 0.763-2.293 0.762c-0.389 0.129-0.723 0.392-0.94 0.742-0.072 0.116-0.131 0.242-0.174 0.374l-0.762 2.292-0.763-2.294c-0.085-0.256-0.231-0.494-0.424-0.688-0.097-0.097-0.206-0.182-0.321-0.253-0.113-0.071-0.238-0.129-0.368-0.173zm4.17-7.341-1.712 5.15c-0.037 0.11-0.101 0.213-0.184 0.297-0.039 0.04-0.086 0.076-0.137 0.109-0.049 0.029-0.104 0.055-0.159 0.073l-5.149 1.712 5.15 1.711c0.054 0.018 0.108 0.044 0.158 0.074 0.051 0.032 0.097 0.069 0.138 0.11 0.082 0.083 0.146 0.185 0.183 0.296l1.712 5.149 1.711-5.149c0.018-0.055 0.044-0.109 0.074-0.159 0.095-0.152 0.238-0.265 0.405-0.321l5.151-1.711-5.151-1.712c-0.167-0.056-0.31-0.169-0.403-0.319-0.033-0.052-0.058-0.105-0.076-0.161z" clip-path="url(#clipPath24)"/>
   <path transform="matrix(1.3333 0 0 -1.3333 359.34 257.7)" d="m0 0 0.21-0.069c0.078-0.027 0.153-0.062 0.223-0.105 0.061-0.037 0.123-0.086 0.184-0.144 0.123-0.125 0.211-0.268 0.261-0.421l0.069-0.208 0.071 0.211c0.024 0.074 0.06 0.15 0.104 0.221 0.128 0.207 0.327 0.366 0.561 0.445l3e-3 1e-3 0.21 0.069-0.211 0.07c-0.233 0.077-0.433 0.235-0.563 0.445-0.045 0.074-0.079 0.147-0.104 0.222l-0.071 0.211-0.069-0.21c-0.05-0.151-0.137-0.293-0.252-0.41-0.062-0.062-0.128-0.113-0.198-0.156-0.065-0.04-0.14-0.075-0.217-0.102zm0.947-4.119-1.018 3.065-3.101 1.054 3.067 1.02 1.051 3.1 1.021-3.066 3.1-1.054-3.065-1.018c-0.013-4e-3 -0.023-0.012-0.029-0.023z" clip-path="url(#clipPath26)"/>
   <path transform="matrix(1.3333 0 0 -1.3333 464.68 291.17)" d="m0 0 0.211-0.07c0.075-0.025 0.151-0.061 0.223-0.105 0.07-0.044 0.134-0.095 0.19-0.15 0.117-0.119 0.204-0.261 0.255-0.412l0.069-0.21 0.071 0.211c0.026 0.076 0.061 0.151 0.104 0.22 0.129 0.209 0.329 0.368 0.563 0.446l0.21 0.07-0.209 0.069c-0.235 0.077-0.435 0.237-0.565 0.447-0.042 0.068-0.077 0.143-0.103 0.22l-0.071 0.211-0.069-0.21c-0.051-0.152-0.138-0.294-0.252-0.41-0.059-0.058-0.123-0.109-0.193-0.153-0.072-0.044-0.148-0.08-0.226-0.106zm0.948-4.121-1.018 3.068-3.1 1.053 3.066 1.019 1.051 3.1 1.021-3.066 3.1-1.053-3.067-1.02c-0.011-3e-3 -0.022-0.011-0.027-0.022z" clip-path="url(#clipPath28)"/>
  </g>
  <path transform="matrix(1.3333 0 0 -1.3333 419.89 250.87)" d="m0 0 2.36 0.784-2.36 0.785c-0.179 0.059-0.329 0.179-0.426 0.337-0.033 0.052-0.06 0.109-0.079 0.168l-0.785 2.36-0.784-2.36c-0.04-0.119-0.107-0.226-0.193-0.312-0.043-0.044-0.092-0.082-0.144-0.114-0.053-0.033-0.109-0.059-0.169-0.079l-2.36-0.785 2.36-0.784c0.06-0.02 0.116-0.046 0.169-0.079 0.052-0.032 0.101-0.071 0.144-0.114 0.086-0.087 0.153-0.193 0.193-0.313l0.261-0.786 0.523-1.573 0.673 2.023 0.112 0.336c0.019 0.06 0.046 0.117 0.079 0.169 0.097 0.157 0.247 0.277 0.426 0.337" clip-path="url(#clipPath30)" fill="#fbba27"/>
  <path transform="matrix(1.3333 0 0 -1.3333 406.71 275.88)" d="m0 0 0.211-0.07c0.077-0.027 0.152-0.062 0.222-0.105 0.065-0.04 0.131-0.091 0.19-0.15 0.118-0.12 0.205-0.262 0.255-0.414l0.069-0.208 0.071 0.211c0.025 0.074 0.059 0.147 0.101 0.216 0.133 0.215 0.333 0.373 0.567 0.45l0.21 0.07-0.21 0.069c-0.237 0.08-0.436 0.239-0.565 0.447-0.043 0.07-0.079 0.146-0.104 0.224l-0.069 0.208-0.07-0.211c-0.05-0.151-0.138-0.294-0.252-0.41-0.07-0.067-0.132-0.116-0.198-0.156-0.065-0.04-0.14-0.075-0.217-0.102zm0.947-4.122-1.018 3.068-3.101 1.054 3.068 1.019 1.05 3.1 1.021-3.065 3.1-1.054-3.067-1.02c-0.012-3e-3 -0.021-0.012-0.028-0.022z" clip-path="url(#clipPath32)" fill="#e62943"/>
  <path transform="matrix(1.3333 0 0 -1.3333 516.93 345.01)" d="m0 0 0.211-0.07c0.077-0.027 0.152-0.062 0.222-0.105 0.065-0.04 0.131-0.091 0.19-0.15 0.118-0.12 0.205-0.262 0.255-0.414l0.07-0.21 0.07 0.211c0.025 0.075 0.059 0.149 0.101 0.218 0.133 0.214 0.333 0.373 0.566 0.45l0.211 0.07-0.21 0.069c-0.237 0.08-0.436 0.239-0.565 0.447-0.043 0.07-0.079 0.146-0.104 0.224l-0.07 0.208-0.069-0.21c-0.051-0.154-0.139-0.297-0.255-0.413-0.061-0.06-0.126-0.112-0.195-0.154-0.065-0.04-0.14-0.075-0.217-0.102zm0.946-4.12-1.017 3.066-3.101 1.054 3.068 1.019 1.051 3.099 1.02-3.064 3.1-1.054-3.067-1.02c-0.012-3e-3 -0.021-0.012-0.028-0.022z" clip-path="url(#clipPath34)" fill="#ea4d95"/>
  <path transform="matrix(1.3333 0 0 -1.3333 510.58 299.29)" d="m0 0 0.21-0.069c0.092-0.033 0.165-0.068 0.232-0.111 0.065-0.041 0.13-0.093 0.187-0.151 0.106-0.105 0.195-0.247 0.249-0.403l0.07-0.214 0.071 0.212c0.024 0.074 0.06 0.15 0.104 0.221 0.128 0.207 0.327 0.366 0.561 0.445l3e-3 1e-3 0.209 0.069-0.21 0.07c-0.234 0.077-0.435 0.237-0.564 0.446-0.042 0.068-0.077 0.142-0.103 0.221l-0.071 0.211-0.069-0.21c-0.055-0.16-0.144-0.302-0.259-0.416-0.048-0.049-0.113-0.101-0.186-0.147-0.072-0.044-0.148-0.08-0.226-0.106zm0.948-4.117-1.018 3.064-3.1 1.053 3.065 1.02 0.579 1.671 0.473 1.429 1.021-3.066 3.1-1.054-3.065-1.018c-0.013-4e-3 -0.024-0.012-0.029-0.023z" clip-path="url(#clipPath36)" fill="#fbba27"/>
  <path transform="matrix(1.3333 0 0 -1.3333 334.85 244.83)" d="m0 0 1.606-0.534c0.114-0.038 0.222-0.089 0.324-0.152 0.097-0.06 0.19-0.133 0.274-0.217 0.167-0.167 0.295-0.374 0.369-0.599l0.534-1.606 0.535 1.607c0.037 0.111 0.087 0.221 0.151 0.323 0.186 0.301 0.476 0.531 0.813 0.644h1e-3l1.607 0.534-1.606 0.533c-0.339 0.113-0.629 0.343-0.815 0.646-0.064 0.1-0.114 0.21-0.151 0.323l-0.535 1.606-0.534-1.607c-0.074-0.225-0.202-0.432-0.369-0.599-0.084-0.084-0.177-0.157-0.277-0.218-0.099-0.062-0.207-0.113-0.32-0.151zm3.107-6.278-1.483 4.462c-0.025 0.077-0.069 0.148-0.127 0.206-0.028 0.028-0.06 0.052-0.094 0.074-0.037 0.022-0.074 0.04-0.112 0.053l-4.463 1.483 4.464 1.482c0.037 0.013 0.074 0.031 0.108 0.052 0.037 0.023 0.069 0.047 0.097 0.075 0.058 0.058 0.102 0.129 0.127 0.206l1.483 4.461 1.484-4.46c0.013-0.04 0.03-0.076 0.052-0.11 0.065-0.106 0.165-0.185 0.282-0.224l4.461-1.482-4.461-1.483c-0.117-0.039-0.217-0.118-0.282-0.222-0.022-0.036-0.039-0.072-0.052-0.11z" clip-path="url(#clipPath38)" fill="#ea4d95"/>
  <path transform="matrix(1.3333 0 0 -1.3333 298.46 326.58)" d="m0 0 0.21-0.069c0.078-0.027 0.153-0.062 0.223-0.105 0.064-0.039 0.129-0.091 0.19-0.151 0.116-0.116 0.204-0.259 0.255-0.414l0.07-0.21 0.07 0.211c0.024 0.076 0.06 0.152 0.104 0.223 0.128 0.207 0.327 0.366 0.561 0.445l3e-3 1e-3 0.21 0.069-0.211 0.07c-0.233 0.077-0.433 0.235-0.563 0.445-0.045 0.074-0.079 0.148-0.104 0.222l-0.071 0.211-0.069-0.21c-0.05-0.151-0.137-0.293-0.252-0.41-0.062-0.062-0.128-0.113-0.198-0.156-0.065-0.04-0.14-0.075-0.217-0.102zm0.946-4.118-1.017 3.064-3.101 1.054 3.067 1.02 1.051 3.1 1.021-3.066 3.1-1.054-3.064-1.018c-0.013-4e-3 -0.024-0.012-0.03-0.023z" clip-path="url(#clipPath40)" fill="#ea4d95"/>
  <path transform="matrix(1.3333 0 0 -1.3333 401.61 234.66)" d="m0 0 4e-3 -2e-3c-1e-3 1e-3 -3e-3 1e-3 -4e-3 2e-3m-0.714-0.783c0.01-0.01 0.02-0.019 0.029-0.029 0.01-9e-3 0.02-0.019 0.029-0.029 0.018 0.02 0.037 0.039 0.057 0.057-0.02 0.018-0.04 0.038-0.057 0.058-0.011-0.011-0.023-0.023-0.033-0.034zm0.058-3.01-0.753 2.265-2.257 0.745 2.259 0.751 0.751 2.261 0.75-2.26 2.258-0.752-2.271-0.791z" clip-path="url(#clipPath42)" fill="#e62943"/>
  <path transform="matrix(1.3333 0 0 -1.3333 300.57 262.55)" d="m0 0c0.031-0.015 0.062-0.03 0.092-0.049 0.076-0.049 0.129-0.092 0.176-0.138 0.077-0.078 0.141-0.169 0.188-0.269 0.015 0.033 0.033 0.066 0.053 0.099 0.099 0.158 0.239 0.281 0.403 0.357-0.165 0.077-0.305 0.2-0.401 0.354-0.022 0.036-0.039 0.07-0.055 0.103-0.047-0.1-0.111-0.191-0.188-0.269-0.044-0.046-0.104-0.094-0.169-0.134-0.032-0.02-0.064-0.037-0.099-0.054m0.457-3.606-0.91 2.735-2.696 0.871 2.732 0.909 0.398 1.271 0.475 1.425 0.909-2.732 2.697-0.873-2.709-0.9z" clip-path="url(#clipPath44)" fill="#fbba27"/>
  <path transform="matrix(1.3333 0 0 -1.3333 354.13 285.96)" d="m0 0 1.545 0.513-1.545 0.514c-0.117 0.039-0.216 0.118-0.279 0.221-0.022 0.034-0.039 0.071-0.052 0.11l-0.513 1.545-0.321-0.966-0.193-0.579c-0.026-0.078-0.07-0.148-0.126-0.205-0.029-0.028-0.06-0.053-0.095-0.074-0.034-0.022-0.071-0.039-0.11-0.052l-1.545-0.514 1.545-0.513c0.039-0.013 0.076-0.03 0.11-0.052 0.035-0.021 0.066-0.046 0.095-0.074 0.056-0.057 0.1-0.127 0.126-0.205l0.171-0.515 0.343-1.03 0.44 1.325 0.073 0.22c0.013 0.039 0.03 0.076 0.052 0.11 0.063 0.103 0.162 0.182 0.279 0.221" clip-path="url(#clipPath46)" fill="#fbba27"/>
  <path transform="matrix(1.3333 0 0 -1.3333 280.62 360.4)" d="m0 0 1.545 0.513-1.545 0.514c-0.117 0.039-0.216 0.118-0.279 0.221-0.022 0.034-0.039 0.071-0.052 0.11l-0.513 1.545-0.321-0.966-0.193-0.579c-0.026-0.078-0.07-0.148-0.126-0.205-0.029-0.028-0.06-0.053-0.095-0.074-0.034-0.022-0.071-0.039-0.11-0.052l-1.545-0.514 1.545-0.513c0.039-0.013 0.076-0.03 0.11-0.052 0.035-0.021 0.066-0.046 0.095-0.074 0.056-0.057 0.1-0.127 0.126-0.205l0.171-0.515 0.343-1.03 0.44 1.325 0.073 0.22c0.013 0.039 0.03 0.076 0.052 0.11 0.063 0.103 0.162 0.182 0.279 0.221" clip-path="url(#clipPath48)" fill="#e62943"/>
  <path transform="matrix(1.3333 0 0 -1.3333 263.94 385.59)" d="m0 0 1.545 0.513-1.545 0.514c-0.117 0.039-0.216 0.118-0.279 0.221-0.022 0.034-0.039 0.071-0.052 0.11l-0.513 1.545-0.321-0.966-0.193-0.579c-0.026-0.078-0.07-0.148-0.126-0.205-0.029-0.028-0.06-0.053-0.095-0.074-0.034-0.022-0.071-0.039-0.11-0.052l-1.545-0.514 1.545-0.513c0.039-0.013 0.076-0.03 0.11-0.052 0.035-0.021 0.066-0.046 0.095-0.074 0.056-0.057 0.1-0.127 0.126-0.205l0.171-0.515 0.343-1.03 0.44 1.325 0.073 0.22c0.013 0.039 0.03 0.076 0.052 0.11 0.063 0.103 0.162 0.182 0.279 0.221" clip-path="url(#clipPath50)" fill="#ea4d95"/>
  <path transform="matrix(1.3333 0 0 -1.3333 272.05 414.38)" d="m0 0 1.076 0.358-1.076 0.357c-0.082 0.027-0.15 0.082-0.194 0.154-0.015 0.024-0.027 0.05-0.036 0.077l-0.358 1.076-0.224-0.673-0.134-0.403c-0.018-0.055-0.048-0.103-0.088-0.143-0.019-0.019-0.041-0.037-0.065-0.052s-0.05-0.027-0.077-0.036l-1.076-0.357 1.076-0.358c0.027-9e-3 0.053-0.021 0.077-0.036s0.046-0.032 0.065-0.052c0.04-0.04 0.07-0.088 0.088-0.143l0.119-0.358 0.239-0.718 0.307 0.923 0.051 0.153c9e-3 0.028 0.021 0.053 0.036 0.077 0.044 0.072 0.112 0.127 0.194 0.154" clip-path="url(#clipPath52)" fill="#fbba27"/>
  <path transform="matrix(1.3333 0 0 -1.3333 542.29 403.64)" d="m0 0 1.545 0.513-1.545 0.514c-0.117 0.039-0.216 0.118-0.279 0.221-0.022 0.034-0.039 0.071-0.052 0.11l-0.513 1.545-0.321-0.966-0.193-0.579c-0.026-0.078-0.07-0.148-0.126-0.205-0.029-0.028-0.06-0.053-0.095-0.074-0.034-0.022-0.071-0.039-0.11-0.052l-1.545-0.514 1.545-0.513c0.039-0.013 0.076-0.03 0.11-0.052 0.035-0.021 0.066-0.046 0.095-0.074 0.056-0.057 0.1-0.127 0.126-0.205l0.171-0.515 0.343-1.03 0.44 1.325 0.073 0.22c0.013 0.039 0.03 0.076 0.052 0.11 0.063 0.103 0.162 0.182 0.279 0.221" clip-path="url(#clipPath54)" fill="#ea4d95"/>
  <path transform="matrix(1.3333 0 0 -1.3333 529.64 427.06)" d="m0 0 1.157 0.384-1.157 0.385c-0.088 0.029-0.161 0.088-0.209 0.165-0.016 0.026-0.029 0.053-0.039 0.083l-0.384 1.156-0.241-0.723-0.144-0.433c-0.019-0.059-0.052-0.111-0.094-0.154-0.021-0.021-0.045-0.04-0.071-0.055-0.025-0.016-0.053-0.029-0.082-0.039l-1.157-0.385 1.157-0.384c0.029-0.01 0.057-0.023 0.082-0.039 0.026-0.016 0.05-0.034 0.071-0.056 0.042-0.042 0.075-0.094 0.094-0.153l0.129-0.385 0.256-0.771 0.329 0.991 0.055 0.165c0.01 0.029 0.023 0.057 0.039 0.083 0.048 0.077 0.121 0.136 0.209 0.165" clip-path="url(#clipPath56)" fill="#fbba27"/>
  <path transform="matrix(1.3333 0 0 -1.3333 534.19 379.7)" d="m0 0 1.157 0.384-1.157 0.385c-0.088 0.029-0.161 0.088-0.209 0.165-0.016 0.026-0.029 0.053-0.039 0.083l-0.384 1.156-0.241-0.723-0.144-0.433c-0.019-0.059-0.052-0.111-0.094-0.154-0.021-0.021-0.045-0.04-0.071-0.055-0.025-0.016-0.053-0.029-0.082-0.039l-1.157-0.385 1.157-0.384c0.029-0.01 0.057-0.023 0.082-0.039 0.026-0.016 0.05-0.034 0.071-0.056 0.042-0.042 0.075-0.094 0.094-0.153l0.129-0.385 0.256-0.771 0.329 0.991 0.055 0.165c0.01 0.029 0.023 0.057 0.039 0.083 0.048 0.077 0.121 0.136 0.209 0.165" clip-path="url(#clipPath58)" fill="#e62943"/>
  <path transform="matrix(1.3333 0 0 -1.3333 541.9 355.97)" d="m0 0 1.157 0.384-1.157 0.385c-0.088 0.029-0.161 0.088-0.209 0.165-0.016 0.026-0.029 0.053-0.039 0.083l-0.384 1.156-0.241-0.723-0.144-0.433c-0.019-0.059-0.052-0.111-0.094-0.154-0.021-0.021-0.045-0.04-0.071-0.055-0.025-0.016-0.053-0.029-0.082-0.039l-1.157-0.385 1.157-0.384c0.029-0.01 0.057-0.023 0.082-0.039 0.026-0.016 0.05-0.034 0.071-0.056 0.042-0.042 0.075-0.094 0.094-0.153l0.128-0.385 0.257-0.771 0.329 0.991 0.055 0.165c0.01 0.029 0.023 0.057 0.039 0.083 0.048 0.077 0.121 0.136 0.209 0.165" clip-path="url(#clipPath60)" fill="#fbba27"/>
  <path transform="matrix(1.3333 0 0 -1.3333 528 317.61)" d="m0 0 1.545 0.513-1.545 0.514c-0.117 0.039-0.216 0.118-0.279 0.221-0.022 0.034-0.039 0.071-0.052 0.11l-0.513 1.545-0.321-0.966-0.193-0.579c-0.026-0.078-0.07-0.148-0.126-0.205-0.029-0.028-0.06-0.053-0.095-0.074-0.034-0.022-0.071-0.039-0.11-0.052l-1.545-0.514 1.545-0.513c0.039-0.013 0.076-0.03 0.11-0.052 0.035-0.021 0.066-0.046 0.095-0.074 0.056-0.057 0.1-0.127 0.126-0.205l0.171-0.515 0.343-1.03 0.44 1.325 0.073 0.22c0.013 0.039 0.03 0.076 0.052 0.11 0.063 0.103 0.162 0.182 0.279 0.221" clip-path="url(#clipPath62)" fill="#ea5a1d"/>
  <path transform="matrix(1.3333 0 0 -1.3333 473 258.76)" d="m0 0 1.545 0.513-1.545 0.514c-0.117 0.039-0.216 0.118-0.279 0.221-0.022 0.034-0.039 0.071-0.052 0.11l-0.513 1.545-0.321-0.966-0.193-0.579c-0.026-0.078-0.07-0.148-0.126-0.205-0.029-0.028-0.06-0.053-0.095-0.074-0.034-0.022-0.071-0.039-0.11-0.052l-1.545-0.514 1.545-0.513c0.039-0.013 0.076-0.03 0.11-0.052 0.035-0.021 0.066-0.046 0.095-0.074 0.056-0.057 0.1-0.127 0.126-0.205l0.171-0.515 0.343-1.03 0.44 1.325 0.073 0.22c0.013 0.039 0.03 0.076 0.052 0.11 0.063 0.103 0.162 0.182 0.279 0.221" clip-path="url(#clipPath64)" fill="#fbba27"/>
  <path transform="matrix(1.3333 0 0 -1.3333 326.29 268.73)" d="m0 0 1.545 0.513-1.545 0.514c-0.117 0.039-0.216 0.118-0.279 0.221-0.022 0.034-0.039 0.071-0.052 0.11l-0.513 1.545-0.321-0.966-0.193-0.579c-0.026-0.078-0.07-0.148-0.126-0.205-0.029-0.028-0.06-0.053-0.095-0.074-0.034-0.022-0.071-0.039-0.11-0.052l-1.545-0.514 1.545-0.513c0.039-0.013 0.076-0.03 0.11-0.052 0.035-0.021 0.066-0.046 0.095-0.074 0.056-0.057 0.1-0.127 0.126-0.205l0.171-0.515 0.343-1.03 0.44 1.325 0.073 0.22c0.013 0.039 0.03 0.076 0.052 0.11 0.063 0.103 0.162 0.182 0.279 0.221" clip-path="url(#clipPath66)" fill="#ea5a1d"/>
  <path transform="matrix(1.3333 0 0 -1.3333 377.68 274.16)" d="m0 0 1.395 0.463-1.395 0.464c-0.106 0.035-0.195 0.106-0.252 0.199-0.019 0.031-0.035 0.064-0.047 0.1l-0.463 1.394-0.29-0.871-0.174-0.523c-0.023-0.071-0.063-0.134-0.114-0.185-0.025-0.026-0.054-0.048-0.085-0.067-0.031-0.02-0.064-0.035-0.099-0.047l-1.395-0.464 1.395-0.463c0.035-0.012 0.068-0.027 0.099-0.047 0.031-0.019 0.06-0.041 0.085-0.067 0.051-0.051 0.091-0.114 0.114-0.185l0.155-0.465 0.309-0.929 0.397 1.196 0.066 0.198c0.012 0.036 0.028 0.069 0.047 0.1 0.057 0.093 0.146 0.164 0.252 0.199" clip-path="url(#clipPath68)" fill="#fbba27"/>
  <g fill="#e62943">
   <path transform="matrix(1.3333 0 0 -1.3333 392.31 255.8)" d="m0 0 1.849 0.614-1.849 0.615c-0.14 0.046-0.258 0.141-0.334 0.264-0.026 0.041-0.046 0.085-0.062 0.132l-0.614 1.848-0.384-1.155-0.231-0.693c-0.031-0.094-0.083-0.177-0.151-0.245-0.034-0.034-0.072-0.064-0.113-0.089-0.041-0.026-0.085-0.047-0.132-0.062l-1.848-0.615 1.848-0.614c0.047-0.016 0.091-0.036 0.132-0.062 0.041-0.025 0.079-0.055 0.113-0.089 0.068-0.068 0.12-0.151 0.151-0.245l0.205-0.616 0.41-1.233 0.527 1.586 0.087 0.263c0.016 0.047 0.036 0.091 0.062 0.132 0.076 0.123 0.194 0.217 0.334 0.264" clip-path="url(#clipPath70)"/>
   <path transform="matrix(1.3333 0 0 -1.3333 488.28 274.27)" d="m0 0 1.545 0.513-1.545 0.514c-0.117 0.039-0.216 0.118-0.279 0.221-0.022 0.034-0.039 0.071-0.052 0.11l-0.513 1.545-0.321-0.966-0.193-0.579c-0.026-0.078-0.07-0.148-0.126-0.205-0.029-0.028-0.06-0.053-0.095-0.074-0.034-0.022-0.071-0.039-0.11-0.052l-1.545-0.514 1.545-0.513c0.039-0.013 0.076-0.03 0.11-0.052 0.035-0.021 0.066-0.046 0.095-0.074 0.056-0.057 0.1-0.127 0.126-0.205l0.171-0.515 0.343-1.03 0.44 1.325 0.073 0.22c0.013 0.039 0.03 0.076 0.052 0.11 0.063 0.103 0.162 0.182 0.279 0.221" clip-path="url(#clipPath72)"/>
   <path transform="matrix(1.3333 0 0 -1.3333 498.04 314.43)" d="m0 0 1.545 0.513-1.545 0.514c-0.117 0.039-0.216 0.118-0.279 0.221-0.022 0.034-0.039 0.071-0.052 0.11l-0.513 1.545-0.321-0.966-0.193-0.579c-0.026-0.078-0.07-0.148-0.126-0.205-0.029-0.028-0.06-0.053-0.095-0.074-0.034-0.022-0.071-0.039-0.11-0.052l-1.545-0.514 1.545-0.513c0.039-0.013 0.076-0.03 0.11-0.052 0.035-0.021 0.066-0.046 0.095-0.074 0.056-0.057 0.1-0.127 0.126-0.205l0.171-0.515 0.343-1.03 0.44 1.325 0.073 0.22c0.013 0.039 0.03 0.076 0.052 0.11 0.063 0.103 0.162 0.182 0.279 0.221" clip-path="url(#clipPath74)"/>
  </g>
  <path transform="matrix(1.3333 0 0 -1.3333 340.91 383.12)" d="m0 0 1.047-0.348c0.098-0.032 0.193-0.077 0.283-0.133 0.082-0.05 0.162-0.114 0.236-0.186 0.152-0.151 0.261-0.328 0.328-0.527l0.347-1.046 0.348 1.046c0.032 0.097 0.077 0.193 0.134 0.283 0.162 0.264 0.415 0.464 0.712 0.563h1e-3l1.045 0.348-1.045 0.348c-0.297 0.098-0.55 0.298-0.714 0.564-0.058 0.092-0.102 0.188-0.133 0.283l-0.348 1.045-0.347-1.047c-0.067-0.197-0.178-0.377-0.324-0.522-0.074-0.074-0.156-0.14-0.243-0.192-0.092-0.056-0.186-0.1-0.282-0.131zm2.241-5.412-1.297 3.901c-0.016 0.051-0.044 0.096-0.081 0.133l-0.133 0.081-3.9 1.297 4.033 1.378c0.037 0.037 0.065 0.082 0.082 0.133l1.296 3.901 1.297-3.903c0.074-0.137 0.139-0.188 0.213-0.212l3.902-1.297-3.902-1.297c-0.074-0.024-0.138-0.075-0.179-0.14z" clip-path="url(#clipPath144)" fill="#ea4d95"/>
  <g transform="translate(412.29 -151.6)">
   <g fill="#ea5a1d">
    <path transform="matrix(1.3333 0 0 -1.3333 252.42 561.09)" d="m0 0c-0.297-0.897-0.69-1.71-1.181-2.438s-1.066-1.35-1.726-1.866-1.404-0.916-2.229-1.2c-0.825-0.283-1.719-0.425-2.684-0.425-0.898 0-1.725 0.118-2.483 0.356-0.757 0.236-1.445 0.566-2.062 0.99-0.618 0.423-1.162 0.927-1.632 1.511s-0.863 1.22-1.181 1.91c-0.317 0.69-0.556 1.42-0.717 2.19s-0.241 1.557-0.241 2.362c0 1.32 0.193 2.549 0.577 3.687 0.386 1.139 0.936 2.127 1.651 2.965 0.716 0.838 1.587 1.493 2.615 1.968 1.028 0.473 2.186 0.711 3.473 0.711 0.965 0 1.839-0.117 2.621-0.35 0.783-0.232 1.481-0.56 2.095-0.983 0.614-0.424 1.142-0.934 1.586-1.531 0.445-0.596 0.815-1.262 1.112-1.999 0.058-0.144 0.082-0.273 0.069-0.387-0.013-0.115-0.091-0.171-0.234-0.171h-0.419c-0.119 0-0.203 0.02-0.254 0.063-0.051 0.042-0.102 0.118-0.152 0.229-0.247 0.533-0.542 1.052-0.889 1.554-0.348 0.504-0.773 0.953-1.277 1.346-0.502 0.394-1.102 0.711-1.795 0.952-0.695 0.242-1.516 0.363-2.463 0.363-1.025 0-1.977-0.198-2.857-0.591-0.881-0.394-1.644-0.95-2.292-1.669-0.647-0.72-1.155-1.583-1.523-2.59-0.368-1.008-0.552-2.125-0.552-3.352 0-1.185 0.169-2.295 0.508-3.333 0.338-1.036 0.82-1.942 1.447-2.716 0.626-0.775 1.384-1.386 2.273-1.834 0.888-0.45 1.886-0.673 2.996-0.673 0.896 0 1.709 0.143 2.437 0.431s1.371 0.668 1.93 1.143c0.558 0.474 1.034 1.018 1.428 1.631 0.393 0.614 0.713 1.251 0.959 1.911 0.042 0.093 0.08 0.167 0.114 0.222 0.033 0.055 0.105 0.083 0.216 0.083h0.533c0.16 0 0.243-0.056 0.247-0.165 5e-3 -0.111-0.011-0.212-0.044-0.305" clip-path="url(#clipPath76-4)"/>
    <path transform="matrix(1.3333 0 0 -1.3333 272.76 558.65)" d="m0 0-3.479 8.899c-0.042 0.119-0.112 0.171-0.209 0.159-0.097-0.013-0.163-0.066-0.197-0.159l-3.504-8.899c-0.109-0.305-0.029-0.457 0.242-0.457h6.906c0.152 0 0.239 0.046 0.261 0.14 0.02 0.092 0.014 0.198-0.02 0.317m3.91-7.287c0.043-0.094 0.051-0.185 0.026-0.274-0.026-0.088-0.089-0.128-0.191-0.12h-0.558c-0.093 0-0.161 0.026-0.204 0.077-0.042 0.05-0.084 0.122-0.127 0.215l-2.221 5.662c-0.042 0.11-0.095 0.186-0.158 0.229-0.064 0.042-0.155 0.063-0.274 0.063h-7.82c-0.093 0-0.176-0.019-0.247-0.057-0.073-0.038-0.129-0.108-0.172-0.209l-2.247-5.688c-0.068-0.195-0.173-0.292-0.318-0.292h-0.584c-0.118 0-0.181 0.049-0.19 0.146-8e-3 0.098 0 0.18 0.025 0.248l7.199 17.773c0.017 0.034 0.043 0.066 0.076 0.095 0.034 0.03 0.081 0.045 0.139 0.045h0.508c0.06 0 0.107-0.015 0.14-0.045 0.034-0.029 0.059-0.061 0.076-0.095z" clip-path="url(#clipPath78-8)"/>
    <path transform="matrix(1.3333 0 0 -1.3333 300.57 561.43)" d="m0 0c0 0.499-0.132 0.976-0.395 1.428-0.262 0.453-0.607 0.85-1.036 1.193-0.427 0.343-0.908 0.616-1.442 0.819-0.533 0.204-1.071 0.309-1.614 0.318h-6.38c-0.153 0-0.229-0.081-0.229-0.241l0.038-7.77c0-0.101 0.021-0.172 0.064-0.21 0.042-0.038 0.114-0.061 0.216-0.069h5.058c0.865 0 1.651 0.107 2.358 0.323 0.708 0.216 1.309 0.521 1.804 0.914 0.496 0.394 0.879 0.87 1.151 1.429 0.271 0.558 0.407 1.18 0.407 1.866m-11.108 4.989c0-0.177 0.084-0.266 0.254-0.266h6.203c0.457 0 0.921 0.099 1.391 0.298 0.471 0.199 0.892 0.463 1.265 0.793 0.373 0.331 0.678 0.707 0.915 1.13s0.356 0.859 0.356 1.308c0 0.609-0.144 1.136-0.432 1.58s-0.653 0.809-1.093 1.092c-0.44 0.284-0.924 0.495-1.449 0.635-0.526 0.139-1.026 0.21-1.5 0.21h-5.707c-0.076 0-0.134-0.022-0.172-0.064-0.038-0.043-0.057-0.098-0.057-0.165zm12.212-4.989c0-0.838-0.157-1.602-0.469-2.292-0.314-0.689-0.758-1.28-1.333-1.77-0.576-0.492-1.279-0.871-2.108-1.137-0.83-0.267-1.756-0.4-2.78-0.4h-6.233c-0.127 0-0.214 0.038-0.261 0.115-0.046 0.076-0.069 0.147-0.069 0.215l0.088 17.698c0 0.185 0.072 0.279 0.216 0.279h6.551c0.871 0 1.652-0.114 2.342-0.343 0.69-0.228 1.276-0.544 1.759-0.946 0.482-0.401 0.85-0.876 1.104-1.422s0.381-1.136 0.381-1.77c0-0.365-0.063-0.737-0.19-1.118-0.127-0.38-0.312-0.745-0.553-1.091-0.241-0.348-0.539-0.665-0.895-0.953-0.355-0.288-0.758-0.52-1.206-0.698 0.533-0.17 1.024-0.402 1.473-0.698 0.448-0.297 0.836-0.637 1.161-1.023 0.326-0.384 0.578-0.801 0.756-1.25s0.266-0.914 0.266-1.396" clip-path="url(#clipPath80-4)"/>
    <path transform="matrix(1.3333 0 0 -1.3333 337.21 568.46)" d="m0 0c0-0.068-0.023-0.14-0.069-0.216-0.047-0.076-0.134-0.114-0.261-0.114h-0.749c-0.093 0-0.163 0.017-0.209 0.051-0.047 0.033-0.087 0.071-0.121 0.114l-10.791 16.529c-0.033 0.051-0.08 0.07-0.14 0.057-0.058-0.013-0.089-0.053-0.089-0.12l0.076-16.301c0-0.068-0.023-0.14-0.069-0.216-0.047-0.076-0.134-0.114-0.261-0.114h-0.444c-0.127 0-0.214 0.038-0.26 0.114-0.047 0.076-0.07 0.148-0.07 0.216l0.089 17.697c0 0.186 0.072 0.28 0.216 0.28h0.749c0.135 0 0.246-0.056 0.33-0.165l10.727-16.187c0.043-0.06 0.094-0.078 0.153-0.058 0.059 0.022 0.089 0.071 0.089 0.147l0.088 15.983c0 0.186 0.073 0.28 0.216 0.28h0.508c0.136 0 0.203-0.094 0.203-0.28z" clip-path="url(#clipPath82-5)"/>
    <path transform="matrix(1.3333 0 0 -1.3333 358.95 568.46)" d="m0 0c0-0.127-0.034-0.214-0.102-0.261-0.068-0.046-0.144-0.069-0.228-0.069h-10.664c-0.127 0-0.214 0.038-0.261 0.114-0.046 0.076-0.069 0.148-0.069 0.216l0.089 17.697c0 0.186 0.071 0.28 0.215 0.28h10.423c0.11 0 0.178-0.026 0.203-0.077 0.026-0.05 0.042-0.119 0.051-0.203v-0.393c0-0.043-9e-3 -0.098-0.025-0.165-0.018-0.069-0.085-0.102-0.203-0.102h-9.496c-0.094-9e-3 -0.158-0.03-0.191-0.063-0.034-0.035-0.051-0.094-0.051-0.178l0.038-6.538c0-0.178 0.084-0.267 0.254-0.267h8.621c0.076 0 0.139-0.019 0.19-0.057s0.076-0.113 0.076-0.222l0.013-0.406c0-0.111-0.026-0.185-0.076-0.223-0.051-0.038-0.119-0.057-0.203-0.057h-8.633c-0.094 0-0.158-0.023-0.191-0.07-0.034-0.046-0.051-0.1-0.051-0.158l0.051-7.795c0-0.161 0.084-0.241 0.254-0.241h9.585c0.127 0 0.218-0.033 0.273-0.096s0.083-0.12 0.083-0.171z" clip-path="url(#clipPath84-7)"/>
    <path transform="matrix(1.3333 0 0 -1.3333 381.87 545.37)" d="m0 0c0-0.076-0.011-0.142-0.031-0.197-0.022-0.055-0.091-0.082-0.21-0.082h-5.573c-0.042 0-0.089-0.018-0.14-0.051-0.051-0.034-0.076-0.102-0.076-0.203l0.089-16.783c0-0.069-0.024-0.14-0.07-0.216-0.047-0.076-0.134-0.114-0.26-0.114h-0.47c-0.118 0-0.198 0.038-0.241 0.114-0.042 0.076-0.064 0.147-0.064 0.216l0.089 16.77c0 0.102-0.025 0.171-0.076 0.209s-0.097 0.058-0.14 0.058h-5.522c-0.11 0-0.178 0.027-0.203 0.082-0.026 0.055-0.039 0.121-0.039 0.197l0.013 0.419c0 0.067 0.02 0.125 0.058 0.171 0.038 0.047 0.107 0.07 0.209 0.07h12.403c0.094 0 0.157-0.023 0.191-0.07 0.034-0.046 0.05-0.104 0.05-0.171z" clip-path="url(#clipPath86-1)"/>
    <path transform="matrix(1.3333 0 0 -1.3333 407.81 567.47)" d="m0 0c0.635 0 1.248 0.097 1.841 0.292 0.592 0.194 1.15 0.468 1.676 0.818 0.524 0.352 1.001 0.773 1.427 1.264 0.428 0.49 0.798 1.034 1.112 1.631 0.312 0.597 0.553 1.24 0.723 1.93 0.169 0.69 0.254 1.403 0.254 2.139 0 1.286-0.203 2.438-0.609 3.453-0.406 1.016-0.948 1.877-1.625 2.583-0.678 0.707-1.458 1.249-2.343 1.625-0.884 0.377-1.805 0.566-2.761 0.566h-4.456c-0.17-9e-3 -0.254-0.107-0.254-0.292l0.089-15.755c0-0.17 0.089-0.254 0.267-0.254zm-0.508 17.24c1.397 0 2.632-0.241 3.707-0.723 1.074-0.483 1.979-1.139 2.71-1.968 0.733-0.83 1.287-1.801 1.663-2.914 0.377-1.113 0.566-2.304 0.566-3.573 0-0.796-0.087-1.573-0.261-2.331-0.173-0.756-0.423-1.474-0.749-2.151-0.325-0.678-0.728-1.3-1.206-1.866-0.478-0.568-1.02-1.059-1.625-1.473-0.605-0.415-1.274-0.736-2.006-0.965-0.731-0.228-1.517-0.342-2.354-0.342h-5.637c-0.127 0-0.214 0.038-0.261 0.114-0.046 0.076-0.069 0.147-0.069 0.216l0.089 17.697c0 0.185 0.071 0.279 0.215 0.279z" clip-path="url(#clipPath88-2)"/>
    <path transform="matrix(1.3333 0 0 -1.3333 440.24 568.46)" d="m0 0c0-0.127-0.033-0.214-0.102-0.261-0.067-0.046-0.143-0.069-0.228-0.069h-10.664c-0.127 0-0.214 0.038-0.26 0.114-0.047 0.076-0.07 0.148-0.07 0.216l0.089 17.697c0 0.186 0.072 0.28 0.215 0.28h10.423c0.111 0 0.178-0.026 0.203-0.077 0.026-0.05 0.043-0.119 0.051-0.203v-0.393c0-0.043-8e-3 -0.098-0.025-0.165-0.017-0.069-0.084-0.102-0.203-0.102h-9.496c-0.093-9e-3 -0.157-0.03-0.191-0.063-0.033-0.035-0.051-0.094-0.051-0.178l0.038-6.538c0-0.178 0.085-0.267 0.254-0.267h8.621c0.076 0 0.139-0.019 0.19-0.057s0.076-0.113 0.076-0.222l0.013-0.406c0-0.111-0.026-0.185-0.076-0.223-0.051-0.038-0.119-0.057-0.203-0.057h-8.633c-0.093 0-0.157-0.023-0.191-0.07-0.033-0.046-0.051-0.1-0.051-0.158l0.051-7.795c0-0.161 0.085-0.241 0.254-0.241h9.585c0.127 0 0.218-0.033 0.274-0.096 0.054-0.063 0.082-0.12 0.082-0.171z" clip-path="url(#clipPath90-6)"/>
    <path transform="matrix(1.3333 0 0 -1.3333 464.92 568.46)" d="m0 0c0-0.068-0.023-0.14-0.07-0.216-0.046-0.076-0.133-0.114-0.26-0.114h-0.749c-0.094 0-0.163 0.017-0.21 0.051-0.046 0.033-0.087 0.071-0.12 0.114l-10.791 16.529c-0.034 0.051-0.081 0.07-0.14 0.057s-0.089-0.053-0.089-0.12l0.076-16.301c0-0.068-0.023-0.14-0.07-0.216-0.046-0.076-0.133-0.114-0.26-0.114h-0.444c-0.127 0-0.214 0.038-0.261 0.114-0.046 0.076-0.069 0.148-0.069 0.216l0.089 17.697c0 0.186 0.071 0.28 0.216 0.28h0.749c0.134 0 0.245-0.056 0.33-0.165l10.727-16.187c0.042-0.06 0.093-0.078 0.153-0.058 0.058 0.022 0.089 0.071 0.089 0.147l0.088 15.983c0 0.186 0.072 0.28 0.216 0.28h0.508c0.135 0 0.203-0.094 0.203-0.28z" clip-path="url(#clipPath92-4)"/>
    <path transform="matrix(1.3333 0 0 -1.3333 488.17 545.37)" d="m0 0c0-0.076-0.011-0.142-0.032-0.197s-0.091-0.082-0.209-0.082h-5.573c-0.042 0-0.089-0.018-0.14-0.051-0.051-0.034-0.076-0.102-0.076-0.203l0.089-16.783c0-0.069-0.024-0.14-0.07-0.216-0.047-0.076-0.134-0.114-0.26-0.114h-0.47c-0.118 0-0.199 0.038-0.241 0.114s-0.064 0.147-0.064 0.216l0.089 16.77c0 0.102-0.025 0.171-0.076 0.209s-0.098 0.058-0.14 0.058h-5.522c-0.111 0-0.178 0.027-0.203 0.082-0.026 0.055-0.039 0.121-0.039 0.197l0.013 0.419c0 0.067 0.019 0.125 0.058 0.171 0.037 0.047 0.107 0.07 0.209 0.07h12.403c0.093 0 0.156-0.023 0.191-0.07 0.034-0.046 0.05-0.104 0.05-0.171z" clip-path="url(#clipPath94-3)"/>
    <path transform="matrix(1.3333 0 0 -1.3333 507.04 558.65)" d="m0 0-3.479 8.899c-0.042 0.119-0.112 0.171-0.209 0.159-0.097-0.013-0.163-0.066-0.197-0.159l-3.504-8.899c-0.11-0.305-0.029-0.457 0.242-0.457h6.906c0.152 0 0.239 0.046 0.26 0.14 0.021 0.092 0.015 0.198-0.019 0.317m3.91-7.287c0.042-0.094 0.051-0.185 0.026-0.274-0.026-0.088-0.089-0.128-0.191-0.12h-0.558c-0.093 0-0.162 0.026-0.204 0.077-0.042 0.05-0.085 0.122-0.127 0.215l-2.221 5.662c-0.042 0.11-0.095 0.186-0.159 0.229-0.063 0.042-0.155 0.063-0.273 0.063h-7.82c-0.093 0-0.176-0.019-0.247-0.057-0.073-0.038-0.13-0.108-0.172-0.209l-2.247-5.688c-0.068-0.195-0.174-0.292-0.318-0.292h-0.584c-0.118 0-0.181 0.049-0.19 0.146-9e-3 0.098 0 0.18 0.025 0.248l7.199 17.773c0.016 0.034 0.042 0.066 0.076 0.095 0.034 0.03 0.08 0.045 0.139 0.045h0.508c0.06 0 0.106-0.015 0.14-0.045 0.034-0.029 0.059-0.061 0.076-0.095z" clip-path="url(#clipPath96-2)"/>
    <path transform="matrix(1.3333 0 0 -1.3333 537.73 556.57)" d="m0 0c0.72 0 1.375 0.109 1.968 0.33 0.593 0.22 1.1 0.512 1.523 0.876 0.423 0.363 0.751 0.778 0.985 1.244 0.232 0.465 0.348 0.944 0.348 1.435 0 0.592-0.099 1.146-0.298 1.663-0.199 0.515-0.485 0.965-0.857 1.346-0.372 0.38-0.832 0.68-1.377 0.901-0.547 0.22-1.162 0.33-1.848 0.33h-5.725c-0.144 0-0.216-0.072-0.216-0.216l0.025-7.668c0-0.094 0.017-0.157 0.051-0.19 0.034-0.034 0.102-0.051 0.203-0.051zm7.084-8.747c0.085-0.094 0.134-0.199 0.145-0.317 0.014-0.12-0.06-0.178-0.221-0.178h-0.66c-0.093 0-0.178 8e-3 -0.254 0.025s-0.14 0.059-0.191 0.127l-6.309 7.96c-0.093 0.102-0.195 0.152-0.305 0.152h-4.532c-0.144 0-0.216-0.084-0.216-0.253l0.038-7.681c0-0.068-0.023-0.14-0.07-0.216-0.046-0.076-0.129-0.114-0.247-0.114h-0.457c-0.127 0-0.214 0.038-0.261 0.114-0.046 0.076-0.069 0.148-0.069 0.216l0.088 17.697c0 0.186 0.073 0.279 0.216 0.279h6.856c0.635 0 1.267-0.106 1.897-0.317 0.631-0.212 1.198-0.531 1.701-0.959 0.504-0.427 0.913-0.965 1.226-1.612 0.313-0.648 0.47-1.411 0.47-2.291 0-0.653-0.127-1.251-0.381-1.797s-0.601-1.022-1.041-1.428c-0.441-0.406-0.956-0.741-1.549-1.003s-1.223-0.436-1.892-0.52c-0.092-0.018-0.15-0.056-0.17-0.115-0.022-0.059-0.011-0.119 0.031-0.177z" clip-path="url(#clipPath98-6)"/>
    <path transform="matrix(1.3333 0 0 -1.3333 569.22 568.46)" d="m0 0c0-0.127-0.034-0.214-0.102-0.261-0.067-0.046-0.143-0.069-0.228-0.069h-10.664c-0.127 0-0.214 0.038-0.261 0.114-0.046 0.076-0.069 0.148-0.069 0.216l0.089 17.697c0 0.186 0.072 0.28 0.215 0.28h10.423c0.111 0 0.178-0.026 0.203-0.077 0.026-0.05 0.042-0.119 0.051-0.203v-0.393c0-0.043-9e-3 -0.098-0.025-0.165-0.017-0.069-0.085-0.102-0.203-0.102h-9.496c-0.093-9e-3 -0.157-0.03-0.191-0.063-0.034-0.035-0.051-0.094-0.051-0.178l0.038-6.538c0-0.178 0.085-0.267 0.254-0.267h8.621c0.076 0 0.139-0.019 0.19-0.057s0.076-0.113 0.076-0.222l0.013-0.406c0-0.111-0.026-0.185-0.076-0.223-0.051-0.038-0.119-0.057-0.203-0.057h-8.633c-0.093 0-0.157-0.023-0.191-0.07-0.034-0.046-0.051-0.1-0.051-0.158l0.051-7.795c0-0.161 0.085-0.241 0.254-0.241h9.585c0.127 0 0.218-0.033 0.273-0.096s0.083-0.12 0.083-0.171z" clip-path="url(#clipPath100-5)"/>
    <path transform="matrix(1.3333 0 0 -1.3333 519.5 568.46)" d="m0 0 0.089 17.697c0 0.186 0.072 0.28 0.216 0.28h0.507c0.136 0 0.204-0.094 0.204-0.28l0.088-17.697c0-0.068-0.023-0.14-0.07-0.216-0.046-0.076-0.133-0.114-0.26-0.114h-0.444c-0.127 0-0.214 0.038-0.261 0.114-0.046 0.076-0.069 0.148-0.069 0.216" clip-path="url(#clipPath102-6)"/>
    <path transform="matrix(1.3333 0 0 -1.3333 309.91 568.46)" d="m0 0 0.089 17.697c0 0.186 0.072 0.28 0.216 0.28h0.507c0.136 0 0.204-0.094 0.204-0.28l0.088-17.697c0-0.068-0.023-0.14-0.07-0.216-0.046-0.076-0.133-0.114-0.26-0.114h-0.444c-0.127 0-0.214 0.038-0.261 0.114-0.046 0.076-0.069 0.148-0.069 0.216" clip-path="url(#clipPath104-8)"/>
   </g>
   <g fill="#e62943">
    <path transform="matrix(1.3333 0 0 -1.3333 147.05 517.8)" d="m0 0v2.7c2.663-1.08 6.515-2.015 9.79-2.015 4.932 0 8.243 1.871 8.243 4.679 0 6.695-18.285 7.199-18.285 13.823 0 5.002 5.831 6.55 11.807 6.55 2.771 0 5.47-0.36 7.558-0.792v-2.699c-3.384 1.367-7.415 2.339-10.438 2.339-3.492 0-6.335-1.043-6.335-3.6 0-5.543 17.638-5.65 17.638-13.462 0-5.903-5.544-8.35-12.671-8.35-2.663 0-5.291 0.359-7.307 0.827" clip-path="url(#clipPath106-2)"/>
    <path transform="matrix(1.3333 0 0 -1.3333 179.69 510.69)" d="m0 0v13.102h-3.42v0.792h3.384c1.08 1.295 2.447 4.103 2.771 5.723h0.828l0.037-5.723h9.718v-0.792h-9.718v-13.354c0-3.42 1.979-4.895 4.247-4.895 2.448 0 5.256 1.727 5.975 4.21l0.828-0.395c-1.476-3.275-4.5-4.859-7.631-4.859-3.635 0-7.019 2.159-7.019 6.191" clip-path="url(#clipPath108-9)"/>
    <path transform="matrix(1.3333 0 0 -1.3333 212.85 500.14)" d="m0 0h8.026c0 3.636-2.807 5.543-5.867 5.543-3.203 0-6.73-2.195-7.631-6.983 1.008 0.972 2.844 1.44 5.472 1.44m-9.287-3.852c0 6.948 5.975 10.115 11.555 10.115 4.859 0 9.358-2.448 9.358-7.055h-11.446c-3.743 0-5.867-0.648-5.867-3.06 0-6.227 4.427-9.287 8.747-9.287 3.815 0 7.451 2.412 7.955 7.091h0.792c-0.577-5.471-5.076-8.062-9.935-8.062-5.364 0-11.159 3.311-11.159 10.258" clip-path="url(#clipPath110-4)"/>
    <path transform="matrix(1.3333 0 0 -1.3333 254.47 504.79)" d="m0 0c0 6.191-3.132 9.035-8.999 9.035-1.224 0-2.556-0.108-4.031-0.324v-17.314c1.619-0.503 3.203-0.828 4.715-0.828 4.679 0 8.315 2.737 8.315 9.431m-16.63-15.838v24.945c3.024 0.432 5.723 0.648 8.026 0.648 8.28 0 12.204-2.879 12.204-9.755 0-7.127-5.329-10.294-11.375-10.294-1.728 0-3.492 0.287-5.255 0.827v-6.371z" clip-path="url(#clipPath112-1)"/>
    <path transform="matrix(1.3333 0 0 -1.3333 262.01 518.23)" d="m0 0v25.269h3.6v-10.511c2.123 3.384 5.903 5.147 9.142 5.147 3.491 0 6.551-2.16 6.551-6.659v-13.246h-3.6v13.282c0 3.78-1.979 5.471-4.426 5.471-2.701 0-6.012-2.123-7.667-5.65v-13.103z" clip-path="url(#clipPath114-3)"/>
    <path transform="matrix(1.3333 0 0 -1.3333 315 513.33)" d="m0 0v7.344c-2.016 1.475-4.787 2.375-7.343 2.375-3.599 0-6.552-1.835-6.552-6.011 0-3.888 2.844-6.623 6.732-6.623 2.124 0 4.787 0.863 7.163 2.915m-17.565 3.492c0 5.112 4.462 7.127 9.142 7.127 3.024 0 6.192-0.935 8.423-2.448-0.144 5.435-2.268 7.199-5.507 7.199-2.412 0-5.508-1.044-8.963-2.483v2.628c1.44 0.215 4.139 0.611 6.767 0.611 5.472 0 11.303-1.476 11.303-7.127v-12.67h-3.6v2.844c-2.699-2.269-5.903-3.312-8.819-3.312-4.751 0-8.746 2.7-8.746 7.631" clip-path="url(#clipPath116-4)"/>
    <path transform="matrix(1.3333 0 0 -1.3333 323.64 518.23)" d="m0 0v19.545h3.6v-3.671c2.735 2.411 6.659 3.959 9.934 3.959 3.491 0 6.335-1.764 6.335-5.939v-13.894h-3.599v14.074c0 3.276-1.836 4.463-4.248 4.463-2.7 0-6.119-1.583-8.422-3.635v-14.902z" clip-path="url(#clipPath118-1)"/>
    <path transform="matrix(1.3333 0 0 -1.3333 375.57 500.14)" d="m0 0h8.026c0 3.636-2.807 5.543-5.867 5.543-3.203 0-6.73-2.195-7.631-6.983 1.008 0.972 2.844 1.44 5.472 1.44m-9.287-3.852c0 6.948 5.975 10.115 11.555 10.115 4.859 0 9.358-2.448 9.358-7.055h-11.446c-3.743 0-5.867-0.648-5.867-3.06 0-6.227 4.427-9.287 8.747-9.287 3.815 0 7.451 2.412 7.955 7.091h0.792c-0.577-5.471-5.076-8.062-9.935-8.062-5.364 0-11.159 3.311-11.159 10.258" clip-path="url(#clipPath120-8)"/>
    <path transform="matrix(1.3333 0 0 -1.3333 406.82 518.23)" d="m0 0v25.269h17.602v-0.792h-14.002v-10.151h11.087v-0.792h-11.087v-13.534z" clip-path="url(#clipPath122-4)"/>
    <path transform="matrix(1.3333 0 0 -1.3333 432.45 518.23)" d="m0 0v19.545h3.6v-4.643c1.836 2.952 5.183 4.787 8.459 4.787 0.935 0 1.872-0.144 2.771-0.431v-2.7c-1.691 0.755-3.348 1.187-4.787 1.187-3.023 0-5.399-1.655-6.443-4.247v-13.498z" clip-path="url(#clipPath124-7)"/>
    <path transform="matrix(1.3333 0 0 -1.3333 475.41 513.33)" d="m0 0v7.344c-2.016 1.475-4.788 2.375-7.344 2.375-3.599 0-6.551-1.835-6.551-6.011 0-3.888 2.844-6.623 6.731-6.623 2.124 0 4.788 0.863 7.164 2.915m-17.566 3.492c0 5.112 4.463 7.127 9.142 7.127 3.025 0 6.192-0.935 8.424-2.448-0.145 5.435-2.268 7.199-5.508 7.199-2.412 0-5.507-1.044-8.963-2.483v2.628c1.44 0.215 4.14 0.611 6.768 0.611 5.471 0 11.303-1.476 11.303-7.127v-12.67h-3.6v2.844c-2.7-2.269-5.903-3.312-8.819-3.312-4.751 0-8.747 2.7-8.747 7.631" clip-path="url(#clipPath126-9)"/>
    <path transform="matrix(1.3333 0 0 -1.3333 484.05 518.23)" d="m0 0v19.545h3.6v-3.348c2.232 2.269 5.867 3.672 9.178 3.672 3.313 0 6.192-1.403 6.768-4.607 2.195 2.987 6.083 4.607 9.539 4.607 3.707 0 6.911-1.764 6.911-5.975v-13.894h-3.6v14.074c0 3.276-2.16 4.535-4.787 4.535-2.916 0-6.227-1.655-7.92-4.535v-14.074h-3.598v14.074c0 3.276-2.196 4.535-4.788 4.535-2.844 0-6.119-1.475-7.703-3.527v-15.082z" clip-path="url(#clipPath128-1)"/>
    <path transform="matrix(1.3333 0 0 -1.3333 540.93 516.69)" d="m0 0c6.911-2.016 13.499 0.612 13.499 8.747 0 7.812-5.256 11.194-13.499 7.272zm-3.6 24.117h3.6v-7.271c9.503 4.716 17.062 0.828 17.062-7.595 0-8.855-7.487-13.066-20.662-9.61z" clip-path="url(#clipPath130-8)"/>
    <path transform="matrix(1.3333 0 0 -1.3333 589.84 513.33)" d="m0 0v7.344c-2.016 1.475-4.788 2.375-7.344 2.375-3.598 0-6.551-1.835-6.551-6.011 0-3.888 2.844-6.623 6.732-6.623 2.123 0 4.787 0.863 7.163 2.915m-17.566 3.492c0 5.112 4.463 7.127 9.143 7.127 3.024 0 6.191-0.935 8.423-2.448-0.145 5.435-2.268 7.199-5.508 7.199-2.411 0-5.507-1.044-8.963-2.483v2.628c1.441 0.215 4.14 0.611 6.768 0.611 5.471 0 11.303-1.476 11.303-7.127v-12.67h-3.6v2.844c-2.7-2.269-5.903-3.312-8.819-3.312-4.751 0-8.747 2.7-8.747 7.631" clip-path="url(#clipPath132-5)"/>
    <path transform="matrix(1.3333 0 0 -1.3333 597.62 504.93)" d="m0 0c0 6.515 5.111 9.898 11.195 9.898 2.772 0 5.759-0.683 8.567-2.124l-1.152-2.627c-2.339 2.736-5.183 4.032-7.739 4.032-4.103 0-7.487-3.168-7.487-8.099 0-6.191 4.139-10.259 9.035-10.259 3.132 0 6.047 1.692 7.774 5.255l0.613-0.395c-2.088-4.104-5.868-6.048-9.863-6.048-5.544 0-10.943 3.708-10.943 10.367" clip-path="url(#clipPath134-2)"/>
    <path transform="matrix(1.3333 0 0 -1.3333 628.24 518.23)" d="m0 0v25.269h3.6v-10.511c2.124 3.384 5.903 5.147 9.143 5.147 3.491 0 6.551-2.16 6.551-6.659v-13.246h-3.6v13.282c0 3.78-1.979 5.471-4.427 5.471-2.7 0-6.011-2.123-7.667-5.65v-13.103z" clip-path="url(#clipPath136-6)"/>
    <path transform="matrix(1.3333 0 0 -1.3333 212.64 488.2)" d="m0 0c2.407 0.01 5.49 1.05 8.93 2.483v-2.627c-1.44-0.216-4.139-0.612-6.767-0.612-0.737 0-1.481 0.027-2.217 0.087" clip-path="url(#clipPath138-2)"/>
    <path transform="matrix(1.3333 0 0 -1.3333 0 800.68)" d="m265.95 231.38h3.6v-19.545h-3.6z" clip-path="url(#clipPath140-8)"/>
    <path transform="matrix(1.3333 0 0 -1.3333 359.48 485.13)" d="m0 0 3.408 1.133-3.408 1.132c-0.259 0.086-0.475 0.26-0.616 0.487-0.047 0.075-0.085 0.157-0.114 0.243l-1.132 3.408-0.708-2.131-0.425-1.277c-0.057-0.172-0.154-0.326-0.279-0.451-0.062-0.063-0.132-0.118-0.208-0.165-0.075-0.047-0.157-0.085-0.243-0.114l-3.407-1.132 3.407-1.133c0.086-0.029 0.168-0.067 0.243-0.114 0.076-0.047 0.146-0.102 0.208-0.165 0.125-0.125 0.222-0.279 0.279-0.451l0.377-1.136 0.756-2.271 0.971 2.921 0.161 0.486c0.029 0.086 0.067 0.168 0.114 0.243 0.141 0.227 0.357 0.401 0.616 0.487" clip-path="url(#clipPath142-5)"/>
   </g>
  </g>
 </g>
</svg>
